<!--
  Silhouette source for the Android status-bar notification icon (TASK-F0TYG
  follow-up) — generate-notification-icon.sh only ever reads this SVG's alpha
  channel (Android auto-tints whatever isn't transparent), so color doesn't
  matter here; every mascot pixel is solid/opaque black and there is no
  backdrop, matching the "just the ring/shard/debris/eye pixels" brief. Same
  13x13 grid/coordinates as OnboardingAngel.svelte and public/icons/
  nulliel.svg, but unpadded — mirrors public/icons/icon.svg's full-bleed
  convention, which this script was originally written against.
-->
<svg xmlns="http://www.w3.org/2000/svg" viewBox="0 0 13 13" shape-rendering="crispEdges">
  <g fill="#000000">
    <!-- ring, arc 1: top vertex down through the left flank -->
    <rect x="6" y="0" width="1" height="1" />
    <rect x="5" y="1" width="1" height="1" />
    <rect x="6" y="1" width="1" height="1" />
    <rect x="7" y="1" width="1" height="1" />
    <rect x="4" y="2" width="1" height="1" />
    <rect x="5" y="2" width="1" height="1" />
    <rect x="7" y="2" width="1" height="1" />
    <rect x="3" y="3" width="1" height="1" />
    <rect x="4" y="3" width="1" height="1" />
    <rect x="2" y="4" width="1" height="1" />
    <rect x="3" y="4" width="1" height="1" />
    <rect x="1" y="5" width="1" height="1" />
    <rect x="2" y="5" width="1" height="1" />
    <rect x="0" y="6" width="1" height="1" />
    <rect x="1" y="6" width="1" height="1" />
    <rect x="1" y="7" width="1" height="1" />
    <rect x="2" y="7" width="1" height="1" />
    <rect x="2" y="8" width="1" height="1" />
    <rect x="3" y="8" width="1" height="1" />
    <rect x="3" y="9" width="1" height="1" />

    <!-- ring, arc 2: bottom vertex up through the right flank -->
    <rect x="6" y="12" width="1" height="1" />
    <rect x="5" y="11" width="1" height="1" />
    <rect x="6" y="11" width="1" height="1" />
    <rect x="7" y="11" width="1" height="1" />
    <rect x="4" y="10" width="1" height="1" />
    <rect x="5" y="10" width="1" height="1" />
    <rect x="7" y="10" width="1" height="1" />
    <rect x="4" y="9" width="1" height="1" />
    <rect x="8" y="9" width="1" height="1" />
    <rect x="8" y="10" width="1" height="1" />
    <rect x="9" y="8" width="1" height="1" />
    <rect x="9" y="9" width="1" height="1" />
    <rect x="10" y="7" width="1" height="1" />
    <rect x="10" y="8" width="1" height="1" />
    <rect x="11" y="5" width="1" height="1" />
    <rect x="11" y="6" width="1" height="1" />
    <rect x="11" y="7" width="1" height="1" />
    <rect x="12" y="6" width="1" height="1" />
    <rect x="9" y="4" width="1" height="1" />
    <rect x="10" y="4" width="1" height="1" />
    <rect x="10" y="5" width="1" height="1" />

    <!-- the torn seam -->
    <rect x="7" y="3" width="1" height="1" />
    <rect x="7" y="4" width="1" height="1" />

    <!-- the loose fleck -->
    <rect x="5" y="9" width="1" height="1" />

    <!-- off-center core, with a dim echo pixel riding beside it -->
    <rect x="8" y="7" width="1" height="1" />
    <rect x="9" y="7" width="1" height="1" />
  </g>
</svg>
